# xmcd
#
# Track frame offsets:
# 150
# 12248
# 41455
# 57107
# 69219
# 81969
# 93774
# 107416
# 117911
# 133021
# 145554
# 157231
# 169779
# 182324
# 195911
# 213274
# 225261
# 237616
# 250231
# 265556
# 278721
# 289054
# 302987
# 317490
# 330430
# 340930
# 353682
#
# Disc length: 4888 seconds
#
#
# Revision: 0
# Processed by: cddbd v1.4PL0 Copyright (c) Steve Scherf et al.
# Submitted via: HACP 1.12
#
DISCID=6813161b
DTITLE=Ray Charles - The Birth Of Soul
DYEAR=1900
DGENRE=
TTITLE0=The Sun Gonna Shine Again
TTITLE1=What'd I Say, Parts 1 and 2
TTITLE2=The Right Time
TTITLE3=Mess Around
TTITLE4=I Got A Woman
TTITLE5=Roll With My Baby
TTITLE6=A Fool For You
TTITLE7=A Bit Of Soul
TTITLE8=Drown In My Own Tears
TTITLE9=Early In The Morning
TTITLE10=Hallelujah I Love Her So
TTITLE11=Mary Ann
TTITLE12=Jumpin' In The Morning
TTITLE13=The Midnight Hour
TTITLE14=Rockhouse Parts 1 and 2
TTITLE15=Nobody Cares
TTITLE16=It Should Have Been Me
TTITLE17=Mr. Charles' Blues
TTITLE18=Sinner's Prayer
TTITLE19=Ray's Blues
TTITLE20=Blackjack
TTITLE21=Come Back Baby
TTITLE22=Losing Hand
TTITLE23=Heartbreaker
TTITLE24=Get On The Right Track
TTITLE25=Feelin' Sad
TTITLE26=Ain't That Love
EXTD=
EXTT0=
EXTT1=
EXTT2=
EXTT3=
EXTT4=
EXTT5=
EXTT6=
EXTT7=
EXTT8=
EXTT9=
EXTT10=
EXTT11=
EXTT12=
EXTT13=
EXTT14=
EXTT15=
EXTT16=
EXTT17=
EXTT18=
EXTT19=
EXTT20=
EXTT21=
EXTT22=
EXTT23=
EXTT24=
EXTT25=
EXTT26=
PLAYORDER=
